<svg width="377" height="347" viewBox="0 0 377 347" fill="none" xmlns="http://www.w3.org/2000/svg">
<path d="M47.5657 0C111.754 43.3033 107.311 40.212 108.171 40.9577C107.91 41.1601 35.9428 97.1367 34.9963 97.7675C33.7065 96.337 16.8168 77.4783 15.5795 76.0227C20.0102 72.7829 24.6252 69.7219 29.0431 66.4713C27.8194 64.9353 1.07615 31.5066 0.220215 30.6225V30.4166C1.04759 29.1991 15.8893 2.76605 16.596 1.49701C17.6511 1.39083 47.3075 0 47.5657 0Z" fill="#57C78F"/>
<path d="M330.69 0.294526C335.665 0.557609 355.709 1.41555 360.176 1.72653C376.155 29.8872 375.657 29.2999 376.59 30.6082V30.8266C375.993 31.4848 377.911 29.1225 347.769 66.67C348.59 67.425 356.169 72.5855 361.22 76.2286C360.328 77.3771 342.872 96.8251 341.821 97.9877C340.758 97.3055 269.616 41.9277 268.627 41.1525C269.688 40.3345 270.861 39.6284 271.97 38.8572C334.816 -3.53838 328.542 0.300377 330.69 0.294526Z" fill="#57C78F"/>
<path d="M188.585 11.4946C190.285 11.9143 274.906 28.401 275.163 28.4519C274.87 28.9621 257.826 45.631 257.604 45.8481C298.457 74.9023 340.571 104.694 342.968 106.508C342.994 106.725 348.714 166.055 348.805 168.38C344.868 166.852 283.594 140.887 280.505 139.684C279.209 139.961 245.945 149.626 244.994 149.943C234.913 188.676 236.103 183.499 236.008 186.294C234.026 238.723 233.601 254.808 233.385 255.816C228.671 253.721 223.979 251.595 219.276 249.483C217.214 248.689 220.188 248.427 205.542 252.19C201.504 253.329 197.378 254.241 193.382 255.485C191.675 256.034 190.043 256.751 188.304 257.224C180.457 254.838 194.889 258.141 159.245 248.778C158.425 248.478 145.114 255.078 143.348 255.547C140.182 170.725 142.906 192.574 131.99 150.352C131.524 149.313 135.446 150.752 99.6823 140.363C98.5499 140.092 97.4819 139.621 96.3195 139.453C94.6056 140.081 33.5628 165.898 28.0046 168.168C28.0106 166.399 32.4431 121.569 33.7929 106.273C62.2511 86.0525 90.7353 65.8571 119.194 45.6383C110.397 36.8688 102.158 28.9826 101.63 28.2404C193.513 10.3202 187.814 11.2165 188.585 11.4946Z" fill="#57C78F"/>
<path d="M93.4504 146.648C95.3162 150.992 98.4044 158.635 98.8033 159.338C99.1154 159.648 98.3097 159.061 109.044 166.063C109.852 166.59 109.253 166.13 129.717 167.294C131.681 179.551 133.592 191.815 135.559 204.071C135.747 204.635 138.03 201.66 97.2291 249.82C96.6243 250.495 101.682 282.044 102.243 287.883C101.598 287.459 37.3171 235.784 37.042 235.398C37.0147 235.18 29.607 175.983 29.283 173.171C29.5524 173.059 92.7643 146.85 93.4504 146.648Z" fill="#57C78F"/>
<path d="M283.358 146.855C304.769 155.645 326.112 164.555 347.508 173.373C347.424 174.182 340.007 235.313 339.436 235.993C317.81 253.401 296.178 270.805 274.544 288.208C274.791 285.959 279.778 251.106 279.793 250.34C274.018 243.401 242.012 205.811 241.258 204.765C241.314 203.627 247.043 167.805 247.108 167.488C247.365 167.478 267.14 166.698 267.812 166.276C278.473 159.294 278.013 159.794 278.23 159.17C279.916 155.058 281.651 150.96 283.358 146.855Z" fill="#57C78F"/>
<path d="M136.099 208.566C139.887 256.744 138.922 250.62 140.061 256.764C151.911 262.929 147.786 261.406 165.739 265.134C166.616 265.358 167.56 265.434 168.39 265.777C168.451 266.142 170.661 277.573 170.732 277.895C171.286 279.734 169.119 277.658 179.407 285.955C181.3 287.511 183.278 288.999 185.124 290.596C185.233 291.281 184.719 299.402 184.539 303.472C159.64 316.559 163.289 314.498 160.412 314.97C120.559 320.305 122.966 320.084 122.831 319.712C104.279 285.682 105.376 287.931 105.28 287.322C101.419 253.644 100.346 252.264 101.049 251.406C135.649 209.075 134.012 210.96 136.099 208.566Z" fill="#57C78F"/>
<path d="M240.792 208.841C240.972 209.06 275.436 251.155 275.95 251.953C275.958 252.874 276.317 249.813 271.537 287.5C271.441 288.16 253.973 319.93 253.853 320.149C241.217 318.536 228.598 316.792 215.969 315.136C213.791 314.839 216.632 316.482 192.255 303.69C192.117 299.435 191.755 295.184 191.652 290.933C192.748 289.593 205.859 279.935 205.941 278.897C208.724 264.555 208.196 266.047 209.036 265.797C229.303 261.669 225.749 262.619 235.575 257.614C235.961 257.39 236.448 257.25 236.733 256.926C237.479 253.598 240.762 208.924 240.792 208.841Z" fill="#57C78F"/>
<path d="M162.115 252.475C185.838 259.603 186.173 259.726 188.946 260.161C198.517 258.057 214.369 252.116 216.4 252.809C220.28 254.268 224.202 255.652 228.063 257.143C227.859 257.361 223.787 261.647 222.995 261.774C220.562 262.29 207.304 265.149 206.447 265.391C205.938 266.867 204.125 279.191 203.625 279.638C194.629 287.634 190.989 291.117 188.469 292.665C188.204 292.595 173.315 279.802 172.986 279.116C172.083 274.469 171.313 269.803 170.431 265.153C151.286 260.918 153.591 261.705 152.557 260.706C151.304 259.44 150.004 258.211 148.756 256.943C150.144 256.311 151.63 255.852 153.065 255.303C162.241 251.895 161.058 252.197 162.115 252.475Z" fill="#57C78F"/>
<path d="M188.277 304.284C189.441 304.931 190.524 305.675 191.71 306.296C216.599 319.115 213.141 317.534 215.438 317.799C228.046 319.24 240.677 320.553 253.283 322.014C252.399 323.144 247.165 329.051 240.956 336.18C238.95 338.356 243.023 336.197 216.285 346.732C216.285 346.732 193.371 346.3 187.657 346.224C180.873 345.731 161.403 346.893 159.919 346.25C131.832 335.197 138.58 338.552 134.701 334.621C124.617 323.081 124.812 323.375 123.517 321.742C123.775 321.717 161.895 317.944 164.566 316.631C164.567 316.631 188.276 304.284 188.277 304.284Z" fill="#57C78F"/>
</svg>
