<svg width="1417" height="321" viewBox="0 0 1417 321" fill="none" xmlns="http://www.w3.org/2000/svg">
<path d="M531.182 238.635H406.205L404.632 231.037L502.623 81.9544L433.453 82.4784L420.615 106.059L412.755 104.225V68.33H531.182L532.754 76.9762L436.073 225.01L510.483 224.486L523.322 200.906L531.182 202.74V238.635ZM551.068 179.683C551.068 160.469 556.57 145.535 567.574 134.88C578.579 124.05 591.417 118.635 606.09 118.635C620.762 118.635 631.854 123.002 639.364 131.736C646.875 140.295 650.631 152.085 650.631 167.107V175.753L646.701 179.683H573.339C573.688 193.133 577.443 203.875 584.605 211.91C591.766 219.945 600.937 223.962 612.116 223.962C623.469 223.962 634.299 221.692 644.605 217.15L648.273 223.962C646.177 226.058 643.644 228.242 640.674 230.513C637.705 232.609 632.902 234.879 626.264 237.325C619.801 239.595 612.989 240.731 605.827 240.731C589.583 240.731 576.395 235.403 566.264 224.748C556.133 213.919 551.068 198.897 551.068 179.683ZM603.207 135.404C594.998 135.404 588.273 136.714 583.033 139.334C580.937 141.954 578.841 146.146 576.745 151.91C574.823 157.674 573.775 163.177 573.601 168.417L629.67 166.845C629.67 145.884 620.849 135.404 603.207 135.404ZM740.782 118.635C756.153 118.635 767.856 124.574 775.891 136.452C784.1 148.155 788.205 163.177 788.205 181.517C788.205 199.858 782.616 214.355 771.437 225.01C760.432 235.491 746.633 240.731 730.039 240.731C722.005 240.731 713.62 239.945 704.887 238.373V284.224L725.585 292.608L724.013 298.372H665.324L663.752 292.608L675.542 287.63C678.686 286.407 680.782 285.097 681.83 283.7C683.053 282.303 683.664 280.294 683.664 277.674V139.596L665.324 136.714L663.752 130.95L697.551 118.635L702.791 120.731L703.315 128.068L704.363 128.592C716.24 121.954 728.38 118.635 740.782 118.635ZM704.887 220.294C711.874 222.74 720.433 223.962 730.563 223.962C740.869 223.962 749.428 222.652 756.24 220.032C762.703 211.473 765.934 198.984 765.934 182.565C765.934 151.998 754.406 136.714 731.349 136.714C722.791 136.714 713.97 137.849 704.887 140.12V220.294ZM895.2 161.867C895.2 152.958 893.104 146.583 888.912 142.74C884.895 138.723 878.344 136.714 869.262 136.714C860.179 136.714 851.096 137.849 842.013 140.12V224.486L862.711 232.871L861.139 238.635H802.45L800.878 232.871L812.668 227.892C815.812 226.67 817.908 225.36 818.956 223.962C820.179 222.565 820.79 220.556 820.79 217.936V79.3343L802.45 76.4522L800.878 70.688L836.249 58.3737L841.489 60.4698V128.592C853.541 121.954 865.943 118.635 878.694 118.635C903.847 118.635 916.423 131.998 916.423 158.723V224.486L937.121 232.871L935.549 238.635H876.86L875.288 232.871L887.078 227.892C890.222 226.67 892.318 225.36 893.366 223.962C894.589 222.565 895.2 220.556 895.2 217.936V161.867ZM981.29 131.474C977.971 132.871 976.312 134.793 976.312 137.238C976.312 139.509 976.749 141.605 977.622 143.526L1006.18 210.862L1035.53 134.88L1016.92 126.496L1018.5 120.731H1069.32L1070.9 126.496L1058.06 131.998C1054.74 133.395 1052.29 135.579 1050.72 138.548C1050.37 139.596 1049.76 141.255 1048.89 143.526L1011.68 235.491C999.631 265.185 988.976 287.019 979.718 300.993L960.068 294.704L957.971 289.464C976.312 269.726 988.626 252.87 994.915 238.897L950.897 134.88L932.295 126.496L933.867 120.731H991.508L993.08 126.496L981.29 131.474ZM1147.01 135.928C1142.46 135.928 1137.05 136.627 1130.76 138.024C1124.65 139.247 1120.37 140.382 1117.92 141.43V224.486L1141.24 232.871L1139.67 238.635H1078.36L1076.79 232.871L1088.58 227.892C1091.72 226.67 1093.82 225.36 1094.87 223.962C1096.09 222.565 1096.7 220.556 1096.7 217.936V139.596L1078.36 136.714L1076.79 130.95L1110.59 118.635L1115.83 120.731L1116.87 130.426L1117.92 130.95C1120.37 129.028 1125.35 126.67 1132.86 123.876C1140.54 120.906 1146.22 119.159 1149.89 118.635C1153.56 119.683 1157.49 121.954 1161.68 125.448C1165.87 128.766 1168.75 131.91 1170.32 134.88L1153.29 157.674L1147.01 155.84V135.928ZM1231.3 240.731C1206.15 240.731 1193.57 227.368 1193.57 200.644V139.596L1175.23 136.714L1173.66 130.95L1209.55 118.635L1214.79 120.731V197.5C1214.79 206.408 1216.8 212.871 1220.82 216.888C1225.01 220.731 1231.65 222.652 1240.73 222.652C1249.81 222.652 1258.9 221.517 1267.98 219.246V139.596L1249.64 136.714L1248.07 130.95L1283.96 118.635L1289.2 120.731V224.486L1307.28 230.775L1305.71 236.539L1283.44 240.731L1278.2 238.635L1269.81 231.299L1268.5 230.775C1256.45 237.412 1244.05 240.731 1231.3 240.731ZM1381.74 135.404C1377.72 133.657 1371.52 132.784 1363.14 132.784C1354.93 132.784 1348.72 134.88 1344.53 139.072C1342.96 141.517 1342.17 144.399 1342.17 147.718C1342.17 155.054 1346.63 160.382 1355.54 163.701L1382.26 173.133C1389.77 175.753 1395.8 180.032 1400.34 185.971C1404.88 191.735 1407.15 198.548 1407.15 206.408C1407.15 217.412 1402.96 225.884 1394.58 231.823C1386.19 237.761 1376.32 240.731 1364.97 240.731C1353.79 240.731 1344.36 238.897 1336.67 235.229C1329.16 231.386 1323.66 227.368 1320.17 223.176L1333.53 201.43L1340.08 203.264L1341.13 220.818C1347.24 224.312 1355.01 226.058 1364.45 226.058C1380.34 226.058 1388.29 220.644 1388.29 209.814C1388.29 205.447 1386.89 201.954 1384.1 199.334C1381.3 196.714 1376.76 194.356 1370.47 192.259L1346.37 184.399C1339.21 181.954 1333.7 177.936 1329.86 172.347C1326.02 166.757 1324.1 160.469 1324.1 153.482C1324.1 142.478 1328.46 133.919 1337.2 127.806C1345.93 121.692 1356.06 118.635 1367.59 118.635C1374.58 118.635 1381.13 120.033 1387.24 122.828C1395.8 126.496 1401.56 130.6 1404.53 135.142L1390.12 155.578L1383.83 153.744L1381.74 135.404Z" fill="white"/>
<path d="M43.7518 0.317871C103.069 40.3344 98.9619 37.4777 99.757 38.1667C99.5163 38.3538 33.0112 90.0816 32.1365 90.6646C30.9446 89.3426 15.3369 71.9153 14.1934 70.5702C18.2879 67.5763 22.5526 64.7477 26.6351 61.7438C25.5043 60.3244 0.790969 29.4331 0 28.616V28.4258C0.764571 27.3007 14.4798 2.87397 15.1328 1.70126C16.1078 1.60313 43.5133 0.317871 43.7518 0.317871Z" fill="#57C78F"/>
<path d="M305.387 0.590062C309.983 0.833176 328.506 1.626 332.634 1.91337C347.401 27.9366 346.94 27.3939 347.803 28.6028V28.8047C347.251 29.4129 349.023 27.2299 321.169 61.9275C321.927 62.6252 328.931 67.3939 333.599 70.7605C332.775 71.8219 316.643 89.7937 315.672 90.8681C314.69 90.2376 248.948 39.0631 248.034 38.3468C249.015 37.5908 250.099 36.9384 251.123 36.2257C309.199 -2.95191 303.401 0.595469 305.387 0.590062Z" fill="#57C78F"/>
<path d="M174.068 10.94C175.638 11.3279 253.836 26.5631 254.074 26.6102C253.803 27.0816 238.053 42.4853 237.848 42.686C275.6 69.5348 314.518 97.0656 316.732 98.7418C316.756 98.942 322.042 153.769 322.127 155.917C318.488 154.505 261.865 130.511 259.011 129.4C257.812 129.656 227.073 138.587 226.194 138.88C216.879 174.673 217.978 169.889 217.891 172.472C216.059 220.921 215.667 235.785 215.467 236.717C211.111 234.781 206.775 232.816 202.429 230.864C200.524 230.131 203.271 229.888 189.737 233.366C186.006 234.419 182.193 235.261 178.501 236.411C176.923 236.918 175.415 237.581 173.808 238.018C166.556 235.813 179.893 238.865 146.955 230.213C146.197 229.936 133.896 236.034 132.264 236.468C129.338 158.085 131.855 178.275 121.768 139.257C121.338 138.298 124.962 139.627 91.9126 130.027C90.8662 129.777 89.8793 129.341 88.8051 129.186C87.2213 129.766 30.8118 153.624 25.6755 155.722C25.681 154.087 29.7771 112.659 31.0244 98.5245C57.3226 79.8387 83.6448 61.1762 109.943 42.4921C101.814 34.3883 94.2004 27.1006 93.7122 26.4148C178.621 9.85477 173.355 10.683 174.068 10.94Z" fill="#57C78F"/>
<path d="M86.1537 135.835C87.8778 139.849 90.7316 146.912 91.1002 147.561C91.3887 147.848 90.6441 147.306 100.563 153.776C101.31 154.263 100.757 153.838 119.668 154.914C121.483 166.24 123.249 177.573 125.066 188.9C125.24 189.42 127.35 186.671 89.6455 231.176C89.0866 231.799 93.7604 260.954 94.2788 266.35C93.6826 265.958 34.281 218.206 34.0268 217.849C34.0016 217.647 27.1561 162.944 26.8567 160.344C27.1057 160.241 85.5197 136.022 86.1537 135.835Z" fill="#57C78F"/>
<path d="M261.647 136.026C281.433 144.149 301.155 152.383 320.928 160.532C320.85 161.279 313.996 217.769 313.468 218.398C293.484 234.485 273.494 250.568 253.502 266.65C253.73 264.572 258.338 232.365 258.353 231.657C253.016 225.244 223.439 190.507 222.742 189.541C222.795 188.489 228.088 155.386 228.148 155.093C228.386 155.084 246.66 154.363 247.281 153.973C257.133 147.521 256.707 147.983 256.908 147.406C258.466 143.606 260.069 139.82 261.647 136.026Z" fill="#57C78F"/>
<path d="M125.566 193.054C129.066 237.575 128.173 231.915 129.226 237.593C140.177 243.29 136.365 241.882 152.956 245.328C153.766 245.535 154.638 245.605 155.405 245.922C155.462 246.259 157.504 256.822 157.569 257.12C158.082 258.82 156.079 256.901 165.586 264.568C167.335 266.006 169.163 267.382 170.869 268.857C170.969 269.49 170.495 276.994 170.328 280.756C147.319 292.849 150.691 290.944 148.033 291.381C111.205 296.311 113.429 296.107 113.304 295.763C96.1599 264.316 97.1744 266.394 97.0855 265.831C93.5173 234.71 92.5259 233.434 93.1754 232.642C125.149 193.524 123.637 195.266 125.566 193.054Z" fill="#57C78F"/>
<path d="M222.312 193.307C222.478 193.51 254.326 232.41 254.801 233.147C254.808 233.998 255.14 231.169 250.723 265.996C250.635 266.606 234.492 295.964 234.381 296.167C222.704 294.676 211.044 293.064 199.373 291.534C197.36 291.26 199.986 292.778 177.458 280.957C177.332 277.025 176.996 273.097 176.901 269.168C177.915 267.93 190.031 259.005 190.106 258.046C192.677 244.793 192.189 246.171 192.966 245.94C211.695 242.126 208.41 243.003 217.49 238.379C217.847 238.172 218.297 238.041 218.56 237.743C219.25 234.667 222.284 193.384 222.312 193.307Z" fill="#57C78F"/>
<path d="M149.607 233.629C171.529 240.216 171.839 240.33 174.401 240.732C183.245 238.788 197.894 233.297 199.771 233.938C203.356 235.286 206.981 236.565 210.548 237.943C210.36 238.144 206.597 242.105 205.865 242.222C203.617 242.699 191.366 245.342 190.574 245.565C190.103 246.929 188.428 258.318 187.966 258.73C179.653 266.12 176.289 269.338 173.96 270.769C173.715 270.704 159.957 258.882 159.652 258.248C158.818 253.954 158.106 249.642 157.292 245.345C139.599 241.431 141.73 242.159 140.774 241.236C139.616 240.066 138.415 238.93 137.262 237.758C138.544 237.174 139.917 236.75 141.243 236.243C149.723 233.094 148.63 233.373 149.607 233.629Z" fill="#57C78F"/>
<path d="M173.782 281.506C174.859 282.103 175.859 282.791 176.955 283.365C199.955 295.211 196.76 293.751 198.882 293.995C210.533 295.327 222.205 296.54 233.854 297.89C233.038 298.934 228.201 304.393 222.463 310.981C220.609 312.992 224.374 310.996 199.664 320.732C199.664 320.732 178.49 320.333 173.21 320.263C166.94 319.807 148.949 320.88 147.577 320.286C121.622 310.072 127.858 313.173 124.273 309.541C114.954 298.877 115.135 299.148 113.938 297.639C114.177 297.616 149.403 294.129 151.872 292.916C151.872 292.916 173.782 281.506 173.782 281.506Z" fill="#57C78F"/>
</svg>
